<svg xmlns="http://www.w3.org/2000/svg" xmlns:svg="http://www.w3.org/2000/svg" xmlns:xlink="http://www.w3.org/1999/xlink" id="svg2" width="16" height="16" version="1.1"><defs id="defs4"><linearGradient id="linearGradient3841"><stop id="stop3843" offset="0" style="stop-color:#427dc2;stop-opacity:1"/><stop id="stop3845" offset="1" style="stop-color:#5e9fce;stop-opacity:1"/></linearGradient><linearGradient id="linearGradient3795"><stop id="stop3797" offset="0" style="stop-color:#2f5d93;stop-opacity:1"/><stop id="stop3799" offset="1" style="stop-color:#3a87bd;stop-opacity:.99215686"/></linearGradient><linearGradient id="linearGradient3984" x1="7.977" x2="7.977" y1="12.296" y2="3.74" gradientUnits="userSpaceOnUse" xlink:href="#linearGradient3841"/><filter id="filter3814" style="color-interpolation-filters:sRGB"><feGaussianBlur id="feGaussianBlur3816" stdDeviation=".202"/></filter><linearGradient id="linearGradient2751" x1="7.977" x2="7.977" y1="12.296" y2="3.74" gradientUnits="userSpaceOnUse" xlink:href="#linearGradient3795"/></defs><metadata id="metadata7"/><path id="rect3963-8" d="m 4.78125,3.953125 -0.75,0.75 3.25,3.25 -3.3125,3.34375 0.75,0.75 3.3125001,-3.34375 3.2499999,3.25 0.75,-0.75 -3.2499999,-3.25 L 12,4.765625 11.25,4.015625 8.0312501,7.203125 4.78125,3.953125 Z" style="fill:#fff;fill-opacity:1;stroke:#fff;stroke-width:1.5;stroke-linejoin:round;stroke-miterlimit:4;stroke-opacity:1;stroke-dasharray:none;filter:url(#filter3814)"/><path id="rect3963" d="M 4.75,4 4,4.75 7.25,8 l -3.3125,3.34375 0.75,0.75 L 8,8.75 11.25,12 12,11.25 8.75,8 11.96875,4.8125 11.21875,4.0625 8,7.25 4.75,4 Z" style="fill:url(#linearGradient3984);fill-opacity:1;stroke:url(#linearGradient2751);stroke-width:.60000002;stroke-linejoin:round;stroke-miterlimit:4;stroke-dasharray:none"/></svg>