<svg xmlns="http://www.w3.org/2000/svg" xmlns:svg="http://www.w3.org/2000/svg" xmlns:xlink="http://www.w3.org/1999/xlink" id="svg2" width="16" height="16" version="1.1"><defs id="defs4"><linearGradient id="linearGradient3918"><stop id="stop3920" offset="0" style="stop-color:#dd8506;stop-opacity:1"/><stop id="stop3922" offset="1" style="stop-color:#f4a24b;stop-opacity:1"/></linearGradient><linearGradient id="linearGradient3830"><stop id="stop3832" offset="0" style="stop-color:#e68507;stop-opacity:1"/><stop id="stop3834" offset="1" style="stop-color:#f4b65f;stop-opacity:1"/></linearGradient><linearGradient id="linearGradient3822"><stop id="stop3824" offset="0" style="stop-color:#f3a952;stop-opacity:1"/><stop id="stop3826" offset="1" style="stop-color:#fadbba;stop-opacity:1"/></linearGradient><linearGradient id="linearGradient3828" x1="9.06" x2="9.06" y1="13.305" y2="1.704" gradientUnits="userSpaceOnUse" xlink:href="#linearGradient3822"/><linearGradient id="linearGradient3836" x1="3.865" x2="3.865" y1="14.919" y2="13.049" gradientTransform="matrix(0.99740928,0,0,1.0026042,-1.0103627,-0.02083319)" gradientUnits="userSpaceOnUse" xlink:href="#linearGradient3830"/><linearGradient id="linearGradient3838" x1="14.005" x2="14.005" y1="14.902" y2="13.07" gradientTransform="matrix(0.99740928,0,0,1.0026042,-0.95854892,-0.02083319)" gradientUnits="userSpaceOnUse" xlink:href="#linearGradient3830"/><linearGradient id="linearGradient3924" x1="9.06" x2="9.06" y1="13.922" y2="1.205" gradientTransform="translate(-7.956569,1.1639522)" gradientUnits="userSpaceOnUse" xlink:href="#linearGradient3918"/><linearGradient id="linearGradient3773" x1="10.576" x2=".835" y1="11.641" y2="1.901" gradientUnits="userSpaceOnUse" xlink:href="#linearGradient3918"/></defs><metadata id="metadata7"/><path id="path26" d="m 0.53389831,2.46 c 0,0 3.09489729,2.034e-4 3.86419599,2.034e-4 3.0514237,0 5.1016949,1.8279111 5.1016949,4.5677966 0,3.737288 0,3.5651 0,3.5651 l 1.9613028,0 -3.3850316,2.907108 -3.3821814,-2.914417 1.8991305,0 c 0,0 0,-1.1255876 0,-2.8459266 0,-1.5541052 -0.8660356,-2.4915254 -2.9661017,-2.4915254 -2.0169491,0 -3.09300949,0 -3.09300949,0 z" style="fill:url(#linearGradient3828);fill-opacity:1;stroke:url(#linearGradient3773);stroke-width:1;stroke-linejoin:round;stroke-miterlimit:4;stroke-opacity:1;stroke-dasharray:none"/><rect id="rect3800" width="4" height="2" x="1" y="13" style="fill:url(#linearGradient3836);fill-opacity:1;stroke:none"/><rect id="rect3800-1" width="4" height="2" x="11" y="13" style="fill:url(#linearGradient3838);stroke:none"/></svg>