<svg xmlns="http://www.w3.org/2000/svg" xmlns:svg="http://www.w3.org/2000/svg" xmlns:xlink="http://www.w3.org/1999/xlink" id="svg2" width="16" height="16" version="1.1"><defs id="defs4"><linearGradient id="linearGradient3918"><stop id="stop3920" offset="0" style="stop-color:#dd8506;stop-opacity:1"/><stop id="stop3922" offset="1" style="stop-color:#f4a24b;stop-opacity:1"/></linearGradient><linearGradient id="linearGradient3830"><stop id="stop3832" offset="0" style="stop-color:#e68507;stop-opacity:1"/><stop id="stop3834" offset="1" style="stop-color:#f4b65f;stop-opacity:1"/></linearGradient><linearGradient id="linearGradient3822"><stop id="stop3824" offset="0" style="stop-color:#f3a952;stop-opacity:1"/><stop id="stop3826" offset="1" style="stop-color:#fadbba;stop-opacity:1"/></linearGradient><linearGradient id="linearGradient3828" x1="9.06" x2="9.06" y1="13.305" y2="1.704" gradientTransform="translate(3.0003655,0)" gradientUnits="userSpaceOnUse" xlink:href="#linearGradient3822"/><linearGradient id="linearGradient3836" x1="3.865" x2="3.865" y1="14.919" y2="13.049" gradientTransform="translate(3.0004159,0)" gradientUnits="userSpaceOnUse" xlink:href="#linearGradient3830"/><linearGradient id="linearGradient3835" x1="6.704" x2="6.704" y1="13.802" y2="1.203" gradientTransform="translate(-19.79661,0.81355932)" gradientUnits="userSpaceOnUse" xlink:href="#linearGradient3918"/><linearGradient id="linearGradient3778" x1="12.911" x2="2.554" y1="12.657" y2="2.3" gradientUnits="userSpaceOnUse" xlink:href="#linearGradient3918"/></defs><metadata id="metadata7"/><path id="path26" d="m 4.6979002,2.4601695 c 0.8462374,0 2.9314717,0 3.7007704,0 3.0514234,0 5.1016944,1.8279111 5.1016944,4.5677966 0,3.7372879 0,3.5652539 0,3.5652539 l 1.961303,0 -3.385031,2.907109 -3.3821817,-2.914417 1.8991307,0 c 0,0 0,-1.1257425 0,-2.8460815 0,-1.7930855 -0.486064,-2.4535675 -2.0470215,-2.4917288 -0.7905159,-0.019326 -1.8420585,0 -2.6469254,0 -1.8210494,0 -2.3671716,0.8090893 -2.3671716,2.4874805 0,1.9656844 -5.146e-4,4.7644178 -5.146e-4,4.7644178 l -3.01067261,0 c 0,0 -0.0018,-3.4603212 -0.0018,-5.4709113 0,-2.7181508 2.20832101,-4.5689192 4.17841991,-4.5689192 z" style="fill:url(#linearGradient3828);fill-opacity:1;stroke:url(#linearGradient3778);stroke-linejoin:round"/><rect id="rect3800" width="4.01" height="1.995" x="5.016" y="12.987" style="fill:url(#linearGradient3836);fill-opacity:1;stroke:none"/></svg>