<svg xmlns="http://www.w3.org/2000/svg" xmlns:svg="http://www.w3.org/2000/svg" xmlns:xlink="http://www.w3.org/1999/xlink" id="svg2" width="16" height="16" version="1.1"><defs id="defs4"><linearGradient id="linearGradient3918"><stop id="stop3920" offset="0" style="stop-color:#dd8506;stop-opacity:1"/><stop id="stop3922" offset="1" style="stop-color:#f4a24b;stop-opacity:1"/></linearGradient><linearGradient id="linearGradient3830"><stop id="stop3832" offset="0" style="stop-color:#e68507;stop-opacity:1"/><stop id="stop3834" offset="1" style="stop-color:#f4b65f;stop-opacity:1"/></linearGradient><linearGradient id="linearGradient3822"><stop id="stop3824" offset="0" style="stop-color:#f3a952;stop-opacity:1"/><stop id="stop3826" offset="1" style="stop-color:#fadbba;stop-opacity:1"/></linearGradient><linearGradient id="linearGradient3828" x1="-.161" x2="12.316" y1="7.678" y2="7.678" gradientTransform="matrix(0,-1,1,0,2.5505178,12.961304)" gradientUnits="userSpaceOnUse" xlink:href="#linearGradient3822"/><linearGradient id="linearGradient3019" x1="14.005" x2="14.005" y1="14.902" y2="13.07" gradientTransform="matrix(0.99740928,0,0,1.0026042,-0.95854848,-0.02083307)" gradientUnits="userSpaceOnUse" xlink:href="#linearGradient3830"/><linearGradient id="linearGradient3022" x1="3.865" x2="3.865" y1="14.919" y2="13.049" gradientTransform="matrix(0.99740928,0,0,1.0026042,-1.0103627,-0.02083319)" gradientUnits="userSpaceOnUse" xlink:href="#linearGradient3830"/><linearGradient id="linearGradient3840" x1="10.707" x2="10.707" y1="15.029" y2="1.149" gradientTransform="translate(-10.97937,-0.45168295)" gradientUnits="userSpaceOnUse" xlink:href="#linearGradient3918"/><linearGradient id="linearGradient3777" x1="11.034" x2="6.593" y1="9.145" y2="4.703" gradientTransform="translate(0,-1.1156965)" gradientUnits="userSpaceOnUse" xlink:href="#linearGradient3918"/></defs><metadata id="metadata7"/><path id="path26" d="m 6.4857466,12.500001 c 0,0 0,-4.7217235 0,-5.4910222 0,-3.0514237 1.5549643,-4.5476758 4.2948494,-4.5476758 3.737288,0 1.730476,-3.03e-4 1.730476,-3.03e-4 l 0,-1.961 2.90711,3.3850318 -2.914418,3.3821814 0,-1.8991305 c 0,0 -0.329926,-6.623e-4 -0.803511,-6.623e-4 -1.554105,0 -2.2222985,0.5181157 -2.2222985,2.6181818 0,2.0169498 0,4.5143978 0,4.5143978 z" style="fill:url(#linearGradient3828);fill-opacity:1;stroke:url(#linearGradient3777);stroke-linejoin:round"/><rect id="rect3800" width="4" height="2" x="1" y="13" style="fill:url(#linearGradient3022);fill-opacity:1;stroke:none"/><rect id="rect3800-1" width="4" height="2" x="11" y="13" style="fill:url(#linearGradient3019);stroke:none"/></svg>