<svg xmlns="http://www.w3.org/2000/svg" xmlns:svg="http://www.w3.org/2000/svg" xmlns:xlink="http://www.w3.org/1999/xlink" id="svg2" width="16" height="16" version="1.1"><defs id="defs4"><linearGradient id="linearGradient3786"><stop id="stop3788" offset="0" style="stop-color:#f2451d;stop-opacity:1"/><stop id="stop3794" offset=".101" style="stop-color:#f01428;stop-opacity:.80000001"/><stop id="stop3796" offset=".897" style="stop-color:#de8493;stop-opacity:1"/><stop id="stop3790" offset="1" style="stop-color:#efc3cc;stop-opacity:1"/></linearGradient><linearGradient id="linearGradient3770"><stop id="stop3772" offset="0" style="stop-color:#520e0d;stop-opacity:1"/><stop id="stop3774" offset="1" style="stop-color:#c4181d;stop-opacity:1"/></linearGradient><linearGradient id="linearGradient3776" x1="7.231" x2="7.231" y1="1051.323" y2="1037.401" gradientUnits="userSpaceOnUse" xlink:href="#linearGradient3770"/><linearGradient id="linearGradient3792" x1="8.769" x2="8.769" y1="1049.931" y2="1038.668" gradientUnits="userSpaceOnUse" xlink:href="#linearGradient3786"/><filter id="filter3841" width="1.48" height="1.48" x="-.24" y="-.24" color-interpolation-filters="sRGB"><feGaussianBlur id="feGaussianBlur3843" stdDeviation=".713"/></filter><linearGradient id="linearGradient3001" x1="8.769" x2="8.769" y1="1049.931" y2="1038.668" gradientTransform="translate(0,-1036.3622)" gradientUnits="userSpaceOnUse" xlink:href="#linearGradient3786"/><linearGradient id="linearGradient3003" x1="7.231" x2="7.231" y1="1051.323" y2="1037.401" gradientTransform="translate(0,-1036.3622)" gradientUnits="userSpaceOnUse" xlink:href="#linearGradient3770"/><filter id="filter3773" width="1.48" height="1.48" x="-.24" y="-.24" color-interpolation-filters="sRGB"><feGaussianBlur id="feGaussianBlur3775" stdDeviation=".713"/></filter></defs><metadata id="metadata7"/><rect id="rect3768" width="13" height="13" x="1.5" y="1.5" rx="2" ry="2" style="fill:url(#linearGradient3001);fill-opacity:1;stroke:url(#linearGradient3003);stroke-width:1;stroke-linejoin:round;stroke-miterlimit:4;stroke-opacity:1;stroke-dasharray:none"/><path id="rect3798-2" d="m 6.5005,5.437 -1.5625,1.5625 2,2 -2,2 1.5625,1.5625 2.0000001,-2 1.9999999,2 1.5625,-1.5625 -2,-2 2,-2 -1.5625,-1.5625 -1.9999999,2 -2.0000001,-2 z" style="opacity:.4;fill:#000;fill-opacity:1;stroke:none;filter:url(#filter3773)"/><path id="rect3798" d="M 6,4.4375 4.4375,6 l 2,2 -2,2 1.5625,1.5625 2,-2 2,2 1.5625,-1.5625 -2,-2 2,-2 L 10,4.4375 l -2,2 -2,-2 z" style="fill:#fff;fill-opacity:1;stroke:none"/></svg>