<svg xmlns="http://www.w3.org/2000/svg" xmlns:svg="http://www.w3.org/2000/svg" xmlns:xlink="http://www.w3.org/1999/xlink" id="svg2" width="16" height="16" version="1.1"><defs id="defs4"><linearGradient id="linearGradient3786"><stop id="stop3788" offset="0" style="stop-color:#f2451d;stop-opacity:1"/><stop id="stop3794" offset=".101" style="stop-color:#f01428;stop-opacity:.80000001"/><stop id="stop3796" offset=".897" style="stop-color:#de8493;stop-opacity:1"/><stop id="stop3790" offset="1" style="stop-color:#efc3cc;stop-opacity:1"/></linearGradient><linearGradient id="linearGradient3770"><stop id="stop3772" offset="0" style="stop-color:#520e0d;stop-opacity:1"/><stop id="stop3774" offset="1" style="stop-color:#c4181d;stop-opacity:1"/></linearGradient><linearGradient id="linearGradient3776" x1="7.231" x2="7.231" y1="1051.323" y2="1037.401" gradientUnits="userSpaceOnUse" xlink:href="#linearGradient3770"/><linearGradient id="linearGradient3792" x1="8.769" x2="8.769" y1="1049.931" y2="1038.668" gradientUnits="userSpaceOnUse" xlink:href="#linearGradient3786"/><filter id="filter3841" width="1.48" height="1.48" x="-.24" y="-.24" color-interpolation-filters="sRGB"><feGaussianBlur id="feGaussianBlur3843" stdDeviation=".713"/></filter><filter id="filter3901" width="1.48" height="1.48" x="-.24" y="-.24" color-interpolation-filters="sRGB"><feGaussianBlur id="feGaussianBlur3903" stdDeviation=".8"/></filter><filter id="filter3963" width="1.39" height="1.624" x="-.195" y="-.312" color-interpolation-filters="sRGB"><feGaussianBlur id="feGaussianBlur3965" stdDeviation=".65"/></filter><linearGradient id="linearGradient3017" x1="8.769" x2="8.769" y1="1049.931" y2="1038.668" gradientTransform="translate(0,-1036.3622)" gradientUnits="userSpaceOnUse" xlink:href="#linearGradient3786"/><linearGradient id="linearGradient3019" x1="7.231" x2="7.231" y1="1051.323" y2="1037.401" gradientTransform="translate(0,-1036.3622)" gradientUnits="userSpaceOnUse" xlink:href="#linearGradient3770"/><filter id="filter3820" width="1.3" height="2.2" x="-.15" y="-.6" color-interpolation-filters="sRGB"><feGaussianBlur id="feGaussianBlur3822" stdDeviation=".5"/></filter><filter id="filter3864" width="1.502" height="1.46" x="-.251" y="-.23" color-interpolation-filters="sRGB"><feGaussianBlur id="feGaussianBlur3866" stdDeviation=".836"/></filter></defs><metadata id="metadata7"/><rect id="rect3768" width="13" height="13" x="1.5" y="1.5" rx="2" ry="2" style="fill:url(#linearGradient3017);fill-opacity:1;stroke:url(#linearGradient3019);stroke-width:1;stroke-linejoin:round;stroke-miterlimit:4;stroke-opacity:1;stroke-dasharray:none"/><path id="path3835-7" d="m 8,4.28125 0,5 1.0000002,0 0,-5 L 8,4.28125 z m -1,1 C 5.5306621,5.8730251 4.5,7.3188452 4.5,9 c 0,2.209139 1.790861,4 4,4 2.209139,0 4,-1.790861 4,-4 0,-1.6811548 -1.030662,-3.1269749 -2.5,-3.71875 l 0,1.125 C 10.895413,6.9252959 11.5,7.8905413 11.5,9 c 0,1.656854 -1.343146,3 -3,3 -1.6568543,0 -3,-1.343146 -3,-3 C 5.5,7.8905413 6.1045867,6.9252959 7,6.40625 l 0,-1.125 z" style="opacity:.4;fill:#000;fill-opacity:1;stroke:none;filter:url(#filter3864)"/><path id="path3835" d="m 7.3515625,3.5 0,4.5 1.546875,0 0,-4.5 -1.546875,0 z M 6.3847656,4.375 C 4.9768464,5.0120053 4,6.3938542 4,8 c 0,2.209139 1.8468254,4 4.125,4 2.278175,0 4.125,-1.790861 4.125,-4 0,-1.6061458 -0.976846,-2.9879947 -2.3847656,-3.625 l 0,1.1875 C 10.671653,6.1035441 11.21875,6.9770791 11.21875,8 c 0,1.6568543 -1.385119,3 -3.09375,3 -1.708631,0 -3.09375,-1.3431457 -3.09375,-3 0,-1.0229209 0.5470977,-1.8964559 1.3535156,-2.4375 l 0,-1.1875 z" style="fill:#fff;fill-opacity:1;stroke:none"/></svg>