<svg xmlns="http://www.w3.org/2000/svg" xmlns:svg="http://www.w3.org/2000/svg" xmlns:xlink="http://www.w3.org/1999/xlink" id="svg2" width="16" height="16" version="1.1"><defs id="defs4"><linearGradient id="linearGradient3786"><stop id="stop3788" offset="0" style="stop-color:#f2451d;stop-opacity:1"/><stop id="stop3794" offset=".101" style="stop-color:#f01428;stop-opacity:.80000001"/><stop id="stop3796" offset=".897" style="stop-color:#de8493;stop-opacity:1"/><stop id="stop3790" offset="1" style="stop-color:#efc3cc;stop-opacity:1"/></linearGradient><linearGradient id="linearGradient3770"><stop id="stop3772" offset="0" style="stop-color:#520e0d;stop-opacity:1"/><stop id="stop3774" offset="1" style="stop-color:#c4181d;stop-opacity:1"/></linearGradient><linearGradient id="linearGradient3776" x1="7.231" x2="7.231" y1="1051.323" y2="1037.401" gradientUnits="userSpaceOnUse" xlink:href="#linearGradient3770"/><linearGradient id="linearGradient3792" x1="8.769" x2="8.769" y1="1049.931" y2="1038.668" gradientUnits="userSpaceOnUse" xlink:href="#linearGradient3786"/><filter id="filter3841" width="1.48" height="1.48" x="-.24" y="-.24" color-interpolation-filters="sRGB"><feGaussianBlur id="feGaussianBlur3843" stdDeviation=".713"/></filter><linearGradient id="linearGradient3005" x1="8.769" x2="8.769" y1="1049.931" y2="1038.668" gradientTransform="translate(0,-1036.3622)" gradientUnits="userSpaceOnUse" xlink:href="#linearGradient3786"/><linearGradient id="linearGradient3007" x1="7.231" x2="7.231" y1="1051.323" y2="1037.401" gradientTransform="translate(0,-1036.3622)" gradientUnits="userSpaceOnUse" xlink:href="#linearGradient3770"/><filter id="filter3827" width="1.48" height="1.48" x="-.24" y="-.24" color-interpolation-filters="sRGB"><feGaussianBlur id="feGaussianBlur3829" stdDeviation=".771"/></filter><filter id="filter3769" width="1.48" height="1.48" x="-.24" y="-.24" color-interpolation-filters="sRGB"><feGaussianBlur id="feGaussianBlur3771" stdDeviation=".771"/></filter><filter id="filter3805" width="1.567" height="1.416" x="-.283" y="-.208" color-interpolation-filters="sRGB"><feGaussianBlur id="feGaussianBlur3807" stdDeviation=".689"/></filter><linearGradient id="linearGradient3005-1" x1="8.769" x2="8.769" y1="1049.931" y2="1038.668" gradientTransform="translate(0,-1036.3622)" gradientUnits="userSpaceOnUse" xlink:href="#linearGradient3786-7"/><linearGradient id="linearGradient3786-7"><stop id="stop3788-4" offset="0" style="stop-color:#f2451d;stop-opacity:1"/><stop id="stop3794-0" offset=".101" style="stop-color:#f01428;stop-opacity:.80000001"/><stop id="stop3796-9" offset=".897" style="stop-color:#de8493;stop-opacity:1"/><stop id="stop3790-4" offset="1" style="stop-color:#efc3cc;stop-opacity:1"/></linearGradient><linearGradient id="linearGradient3007-8" x1="7.231" x2="7.231" y1="1051.323" y2="1037.401" gradientTransform="translate(0,-1036.3622)" gradientUnits="userSpaceOnUse" xlink:href="#linearGradient3770-8"/><linearGradient id="linearGradient3770-8"><stop id="stop3772-2" offset="0" style="stop-color:#520e0d;stop-opacity:1"/><stop id="stop3774-4" offset="1" style="stop-color:#c4181d;stop-opacity:1"/></linearGradient><linearGradient id="linearGradient3028" x1="8.769" x2="8.769" y1="1049.931" y2="1038.668" gradientTransform="translate(16.813559,-1031.2775)" gradientUnits="userSpaceOnUse" xlink:href="#linearGradient3786-7"/><linearGradient id="linearGradient3030" x1="7.231" x2="7.231" y1="1051.323" y2="1037.401" gradientTransform="translate(16.813559,-1031.2775)" gradientUnits="userSpaceOnUse" xlink:href="#linearGradient3770-8"/><linearGradient id="linearGradient3047" x1="8.769" x2="8.769" y1="1049.931" y2="1038.668" gradientTransform="translate(16.813559,-1031.2775)" gradientUnits="userSpaceOnUse" xlink:href="#linearGradient3786-7"/><linearGradient id="linearGradient3049" x1="7.231" x2="7.231" y1="1051.323" y2="1037.401" gradientTransform="translate(16.813559,-1031.2775)" gradientUnits="userSpaceOnUse" xlink:href="#linearGradient3770-8"/><linearGradient id="linearGradient3054" x1="8.769" x2="8.769" y1="1049.931" y2="1038.668" gradientTransform="translate(16,-1036.3622)" gradientUnits="userSpaceOnUse" xlink:href="#linearGradient3786-7"/><linearGradient id="linearGradient3056" x1="7.231" x2="7.231" y1="1051.323" y2="1037.401" gradientTransform="translate(16,-1036.3622)" gradientUnits="userSpaceOnUse" xlink:href="#linearGradient3770-8"/></defs><metadata id="metadata7"/><rect id="rect3768" width="13" height="13" x="1.5" y="1.5" rx="2" ry="2" style="fill:url(#linearGradient3005);fill-opacity:1;stroke:url(#linearGradient3007);stroke-width:1;stroke-linejoin:round;stroke-miterlimit:4;stroke-opacity:1;stroke-dasharray:none"/><path id="path3009-7" d="M 11.3926,6.1074 C 10.515283,5.2300832 9.4419431,4.8979948 9.0032851,5.3366532 c -0.255344,0.2553433 -0.229157,0.7134369 0,1.2331952 -0.163522,0.09048 -0.320117,0.2045048 -0.462448,0.3468361 l -1.117583,1.1175823 c -0.03265,0.03265 -0.0664,0.0623 -0.09634,0.09634 C 6.6066931,7.7540648 5.9401829,7.6675448 5.5927292,8.0149978 5.1339279,8.4737998 5.3984735,9.504982 6.1515209,10.46212 L 4.644,12.856 7.0378801,11.348479 c 0.957138,0.753047 1.98832,1.017593 2.447122,0.558792 0.347453,-0.347454 0.260934,-1.013963 -0.115613,-1.734181 0.03405,-0.02995 0.06369,-0.06369 0.09634,-0.09634 L 10.583311,8.9591678 c 0.142332,-0.142332 0.256357,-0.298926 0.346837,-0.462448 0.519758,0.229156 0.977852,0.255343 1.233195,0 0.438659,-0.438658 0.10657,-1.5119991 -0.770747,-2.3893155 z" style="opacity:.4;fill:#000;fill-opacity:1;stroke:none;filter:url(#filter3769)"/><path id="path3009" d="M 10.89253,5.10747 C 10.015213,4.2301532 8.941873,3.8980648 8.5032146,4.3367232 8.2478713,4.5920665 8.2740583,5.0501601 8.5032145,5.5699184 8.3396928,5.6603987 8.1830977,5.7744232 8.0407664,5.9167545 L 6.9231837,7.0343372 C 6.8905302,7.0669907 6.8567871,7.0966326 6.82684,7.1306809 6.106623,6.7541347 5.4401127,6.6676146 5.092659,7.0150683 4.6338577,7.4738695 4.8984033,8.5050518 5.6514507,9.46219 l -1.5075209,2.39388 2.3938801,-1.507521 c 0.9571376,0.753047 1.9883203,1.017593 2.4471215,0.558792 0.3474538,-0.347454 0.2609343,-1.0139636 -0.1156123,-1.7341809 0.034053,-0.029952 0.063695,-0.063695 0.096344,-0.096344 L 10.083245,7.9592337 c 0.142332,-0.1423314 0.256357,-0.2989258 0.346837,-0.4624482 0.519758,0.2291559 0.977852,0.2553436 1.233195,4e-7 0.438659,-0.4386584 0.10657,-1.5119992 -0.770747,-2.3893156 z" style="fill:#fff;fill-opacity:1;stroke:none"/></svg>