<svg xmlns="http://www.w3.org/2000/svg" xmlns:svg="http://www.w3.org/2000/svg" xmlns:xlink="http://www.w3.org/1999/xlink" id="svg3053" width="16" height="16" version="1.1"><defs id="defs3055"><filter id="filter3805" width="1.567" height="1.416" x="-.283" y="-.208" color-interpolation-filters="sRGB"><feGaussianBlur id="feGaussianBlur3807" stdDeviation=".689"/></filter><linearGradient id="linearGradient3054" x1="8.769" x2="8.769" y1="1049.931" y2="1038.668" gradientTransform="translate(16,-1036.3622)" gradientUnits="userSpaceOnUse" xlink:href="#linearGradient3786-7"/><linearGradient id="linearGradient3786-7"><stop id="stop3788-4" offset="0" style="stop-color:#f2451d;stop-opacity:1"/><stop id="stop3794-0" offset=".101" style="stop-color:#f01428;stop-opacity:.80000001"/><stop id="stop3796-9" offset=".897" style="stop-color:#de8493;stop-opacity:1"/><stop id="stop3790-4" offset="1" style="stop-color:#efc3cc;stop-opacity:1"/></linearGradient><linearGradient id="linearGradient3056" x1="7.231" x2="7.231" y1="1051.323" y2="1037.401" gradientTransform="translate(16,-1036.3622)" gradientUnits="userSpaceOnUse" xlink:href="#linearGradient3770-8"/><linearGradient id="linearGradient3770-8"><stop id="stop3772-2" offset="0" style="stop-color:#520e0d;stop-opacity:1"/><stop id="stop3774-4" offset="1" style="stop-color:#c4181d;stop-opacity:1"/></linearGradient><linearGradient id="linearGradient3049" x1="8.769" x2="8.769" y1="1049.931" y2="1038.668" gradientTransform="translate(3.010498e-8,-1.4695937e-5)" gradientUnits="userSpaceOnUse" xlink:href="#linearGradient3786-7"/><linearGradient id="linearGradient3051" x1="7.231" x2="7.231" y1="1051.323" y2="1037.401" gradientTransform="translate(3.010498e-8,-1.4695937e-5)" gradientUnits="userSpaceOnUse" xlink:href="#linearGradient3770-8"/></defs><metadata id="metadata3058"/><g id="layer1" transform="translate(0,-1036.3622)"><rect id="rect3768-5" width="13" height="13" x="1.5" y="1037.862" rx="2" ry="2" style="fill:url(#linearGradient3049);fill-opacity:1;stroke:url(#linearGradient3051);stroke-width:1;stroke-linejoin:round;stroke-miterlimit:4;stroke-opacity:1;stroke-dasharray:none"/><path id="path3009-1-1" d="m 9.4260541,1041.4719 a 2.2466574,1.3731489 15 0 0 -2.360283,0.8064 2.2466574,1.3731489 15 0 0 0.521672,1.2119 c -0.0259,0.068 -0.06344,0.1315 -0.08275,0.2035 l -0.169278,0.6318 c -0.02887,0.1077 -0.04689,0.2167 -0.05832,0.3229 a 2.7491622,1.6802779 15 0 0 -1.65661,1.0232 2.7491622,1.6802779 15 0 0 1.728254,2.1841 l 0.140423,1.4765 0.85986,-1.2085 a 2.7491622,1.6802779 15 0 0 2.5887599,-1.0273 2.7491622,1.6802779 15 0 0 -0.923069,-1.7144 c 0.04323,-0.098 0.08209,-0.2011 0.110961,-0.3088 l 0.169279,-0.6318 c 0.01931,-0.072 0.01867,-0.1461 0.0301,-0.2176 a 2.2466574,1.3731489 15 0 0 1.057726,-0.7887 2.2466574,1.3731489 15 0 0 -1.9567259,-1.9632 z" style="opacity:.4;fill:#000;fill-opacity:1;stroke:none;filter:url(#filter3805)"/><path id="path3009-1" d="m 8.8890691,1040.4124 a 2.2466574,1.3731489 15 0 0 -2.360284,0.8064 2.2466574,1.3731489 15 0 0 0.521673,1.2119 c -0.0259,0.068 -0.06344,0.1315 -0.08275,0.2036 l -0.169279,0.6317 c -0.02887,0.1078 -0.04689,0.2167 -0.05832,0.323 a 2.7491622,1.6802779 15 0 0 -1.656609,1.0231 2.7491622,1.6802779 15 0 0 1.728254,2.1841 l 0.140423,1.4765 0.85986,-1.2084 a 2.7491622,1.6802779 15 0 0 2.5887549,-1.0274 2.7491622,1.6802779 15 0 0 -0.9230679,-1.7144 c 0.04323,-0.098 0.08209,-0.2011 0.1109611,-0.3088 l 0.169279,-0.6318 c 0.01931,-0.072 0.01867,-0.1461 0.0301,-0.2176 a 2.2466574,1.3731489 15 0 0 1.0577208,-0.7887 2.2466574,1.3731489 15 0 0 -1.9567249,-1.9632 z" style="fill:#fff;fill-opacity:1;stroke:none"/></g></svg>