<svg xmlns="http://www.w3.org/2000/svg" xmlns:svg="http://www.w3.org/2000/svg" xmlns:xlink="http://www.w3.org/1999/xlink" id="svg2" width="16" height="16" version="1.1"><defs id="defs4"><linearGradient id="linearGradient3786"><stop id="stop3788" offset="0" style="stop-color:#f2451d;stop-opacity:1"/><stop id="stop3794" offset=".101" style="stop-color:#f01428;stop-opacity:.80000001"/><stop id="stop3796" offset=".897" style="stop-color:#de8493;stop-opacity:1"/><stop id="stop3790" offset="1" style="stop-color:#efc3cc;stop-opacity:1"/></linearGradient><linearGradient id="linearGradient3770"><stop id="stop3772" offset="0" style="stop-color:#520e0d;stop-opacity:1"/><stop id="stop3774" offset="1" style="stop-color:#c4181d;stop-opacity:1"/></linearGradient><linearGradient id="linearGradient3776" x1="7.231" x2="7.231" y1="1051.323" y2="1037.401" gradientUnits="userSpaceOnUse" xlink:href="#linearGradient3770"/><linearGradient id="linearGradient3792" x1="8.769" x2="8.769" y1="1049.931" y2="1038.668" gradientUnits="userSpaceOnUse" xlink:href="#linearGradient3786"/><filter id="filter3841" width="1.48" height="1.48" x="-.24" y="-.24" color-interpolation-filters="sRGB"><feGaussianBlur id="feGaussianBlur3843" stdDeviation=".713"/></filter><filter id="filter3901" width="1.48" height="1.48" x="-.24" y="-.24" color-interpolation-filters="sRGB"><feGaussianBlur id="feGaussianBlur3903" stdDeviation=".8"/></filter><filter id="filter3963" width="1.39" height="1.624" x="-.195" y="-.312" color-interpolation-filters="sRGB"><feGaussianBlur id="feGaussianBlur3965" stdDeviation=".65"/></filter><linearGradient id="linearGradient3017" x1="8.769" x2="8.769" y1="1049.931" y2="1038.668" gradientTransform="translate(0,-1036.3622)" gradientUnits="userSpaceOnUse" xlink:href="#linearGradient3786"/><linearGradient id="linearGradient3019" x1="7.231" x2="7.231" y1="1051.323" y2="1037.401" gradientTransform="translate(0,-1036.3622)" gradientUnits="userSpaceOnUse" xlink:href="#linearGradient3770"/><filter id="filter3820" width="1.3" height="2.2" x="-.15" y="-.6" color-interpolation-filters="sRGB"><feGaussianBlur id="feGaussianBlur3822" stdDeviation=".5"/></filter><filter id="filter3791" width="1.32" height="1.96" x="-.16" y="-.48" color-interpolation-filters="sRGB"><feGaussianBlur id="feGaussianBlur3793" stdDeviation=".4"/></filter><filter id="filter3845" width="1.39" height="1.624" x="-.195" y="-.312" color-interpolation-filters="sRGB"><feGaussianBlur id="feGaussianBlur3847" stdDeviation=".65"/></filter><filter id="filter3867" width="1.39" height="1.624" x="-.195" y="-.312" color-interpolation-filters="sRGB"><feGaussianBlur id="feGaussianBlur3869" stdDeviation=".65"/></filter></defs><metadata id="metadata7"/><rect id="rect3768" width="13" height="13" x="1.5" y="1.5" rx="2" ry="2" style="fill:url(#linearGradient3017);fill-opacity:1;stroke:url(#linearGradient3019);stroke-width:1;stroke-linejoin:round;stroke-miterlimit:4;stroke-opacity:1;stroke-dasharray:none"/><path id="path3806-0" d="m 4.5,11 2,-2.5 2,-2.5 2,2.5 2,2.5 -4,0 -4,0 z m 2,-1 2,0 2,0 -1,-1.25 -1,-1.25 -1,1.25 -1,1.25 z" style="opacity:.4;fill:#000;fill-opacity:1;stroke:none;filter:url(#filter3867)"/><path id="path3806" d="M 4,10 6,7.5 8,5 10,7.5 12,10 8,10 4,10 z M 6,9 8,9 10,9 9,7.75 8,6.5 7,7.75 6,9 z" style="fill:#fff;fill-opacity:1;stroke:none"/></svg>