<svg xmlns="http://www.w3.org/2000/svg" xmlns:svg="http://www.w3.org/2000/svg" id="svg2" width="13" height="13" version="1.1"><metadata id="metadata8"/><defs id="defs6"><filter id="filter3804" width="1.24" height="1.24" x="-.12" y="-.12" color-interpolation-filters="sRGB"><feGaussianBlur id="feGaussianBlur3806" stdDeviation=".317"/></filter></defs><path id="path2987" d="m 11.564935,6.0103898 a 5.6389608,5.6389608 0 1 1 -11.27792195,0 5.6389608,5.6389608 0 1 1 11.27792195,0 z" transform="matrix(1.0640258,0,0,1.0640258,-0.30538929,-0.39520964)" style="fill:#7f7f7f;fill-opacity:.70196078;stroke:none"/><path id="rect3757-7" d="m 3.5,3.84325 -0.6875,0.6875 2.5,2.46875 -2.5,2.5 L 3.5,10.187 6,7.687 8.46875,10.187 9.15625,9.4995 6.6875,6.9995 9.15625,4.53075 8.46875,3.84325 6,6.312 3.5,3.84325 z" style="opacity:.25;fill:#000;fill-opacity:1;stroke:none;filter:url(#filter3804)"/><path id="rect3757" d="M 3.5,2.84375 2.8125,3.53125 5.3125,6 2.8125,8.5 3.5,9.1875 6,6.6875 8.46875,9.1875 9.15625,8.5 6.6875,6 9.15625,3.53125 8.46875,2.84375 6,5.3125 3.5,2.84375 z" style="fill:#eaeaea;fill-opacity:1;stroke:none"/></svg>