<svg xmlns="http://www.w3.org/2000/svg" xmlns:svg="http://www.w3.org/2000/svg" id="svg2" width="13" height="13" version="1.1"><metadata id="metadata8"/><defs id="defs6"><filter id="filter3804" width="1.24" height="1.24" x="-.12" y="-.12" color-interpolation-filters="sRGB"><feGaussianBlur id="feGaussianBlur3806" stdDeviation=".317"/></filter><filter id="filter3887" width="1.44" height="1.528" x="-.22" y="-.264" color-interpolation-filters="sRGB"><feGaussianBlur id="feGaussianBlur3889" stdDeviation=".55"/></filter></defs><path id="path2987" d="m 11.564935,6.0103898 a 5.6389608,5.6389608 0 1 1 -11.27792195,0 5.6389608,5.6389608 0 1 1 11.27792195,0 z" transform="matrix(1.0640258,0,0,1.0640258,-0.30538929,-0.39520964)" style="fill:#7f7f7f;fill-opacity:.70196078;stroke:none"/><path id="rect3819-4" d="M 3,4 3,5 9,5 9,4 3,4 z M 3,6 3,7 9,7 9,6 3,6 z M 3,8 3,9 9,9 9,8 3,8 z" style="opacity:.25;fill:#000;fill-opacity:1;stroke:none;filter:url(#filter3887)"/><path id="rect3819" d="M 3,3 3,4 9,4 9,3 3,3 z M 3,5 3,6 9,6 9,5 3,5 z M 3,7 3,8 9,8 9,7 3,7 z" style="fill:#fff;fill-opacity:1;stroke:none"/></svg>