<svg xmlns="http://www.w3.org/2000/svg" xmlns:svg="http://www.w3.org/2000/svg" xmlns:xlink="http://www.w3.org/1999/xlink" id="svg2" width="16" height="16" version="1.1" viewBox="0 0 16 16"><defs id="defs4"><linearGradient id="linearGradient4123"><stop id="stop4125" offset="0" style="stop-color:#787878;stop-opacity:1"/><stop id="stop4127" offset="1" style="stop-color:#a0a0a0;stop-opacity:1"/></linearGradient><linearGradient id="linearGradient4117"><stop id="stop4119" offset="0" style="stop-color:#8c8c8c;stop-opacity:1"/><stop id="stop4121" offset="1" style="stop-color:#b4b4b4;stop-opacity:1"/></linearGradient><linearGradient id="linearGradient4107"><stop id="stop4109" offset="0" style="stop-color:#282828;stop-opacity:1"/><stop id="stop4111" offset="1" style="stop-color:#3c3c3c;stop-opacity:1"/></linearGradient><linearGradient id="linearGradient4099"><stop id="stop4101" offset="0" style="stop-color:#000;stop-opacity:1"/><stop id="stop4103" offset="1" style="stop-color:#282828;stop-opacity:1"/></linearGradient><linearGradient id="linearGradient4105" x1="13.729" x2="9.146" y1="12.829" y2="9.964" gradientUnits="userSpaceOnUse" xlink:href="#linearGradient4099"/><linearGradient id="linearGradient4113" x1="12.767" x2="9.166" y1="13.647" y2="11.437" gradientUnits="userSpaceOnUse" xlink:href="#linearGradient4107"/><linearGradient id="linearGradient4115" x1="9.412" x2="3.09" y1="9.228" y2="4.379" gradientUnits="userSpaceOnUse" xlink:href="#linearGradient4117"/><linearGradient id="linearGradient4129" x1="10.251" x2="3.683" y1="8.225" y2="3.212" gradientUnits="userSpaceOnUse" xlink:href="#linearGradient4123"/></defs><metadata id="metadata7"/><g id="layer1" transform="translate(0,-1036.3622)"><path id="path4062" d="M 6,2.1992188 A 3.8,3.8 0 0 0 2.1992188,6 3.8,3.8 0 0 0 6,9.8007812 3.8,3.8 0 0 0 8.3242188,9.0039062 L 9.21875,9.8984375 9.8984375,9.2167969 9.0019531,8.3222656 A 3.8,3.8 0 0 0 9.8007812,6 3.8,3.8 0 0 0 6,2.1992188 Z m 0,0.5 A 3.3,3.2999997 0 0 1 9.3007812,6 3.3,3.2999997 0 0 1 6,9.3007812 3.3,3.2999997 0 0 1 2.6992188,6 3.3,3.2999997 0 0 1 6,2.6992188 Z" transform="translate(0,1036.3622)" style="color:#000;color-interpolation:sRGB;color-interpolation-filters:linearRGB;fill:url(#linearGradient4115);fill-opacity:1;fill-rule:nonzero;stroke:url(#linearGradient4129);stroke-width:.40000004;stroke-linecap:butt;stroke-linejoin:round;stroke-miterlimit:4;stroke-opacity:1;stroke-dasharray:none;stroke-dashoffset:0;marker:none;visibility:visible;display:inline;overflow:visible;enable-background:accumulate;clip-rule:nonzero"/><path id="rect4064" d="M 10.027344,9.0878906 9.0878906,10.027344 12.859375,13.800781 13.800781,12.859375 10.027344,9.0878906 Z" transform="translate(0,1036.3622)" style="color:#000;color-interpolation:sRGB;color-interpolation-filters:linearRGB;fill:url(#linearGradient4113);fill-opacity:1;fill-rule:nonzero;stroke:url(#linearGradient4105);stroke-width:.40000001;stroke-linecap:butt;stroke-linejoin:round;stroke-miterlimit:4;stroke-opacity:1;stroke-dasharray:none;stroke-dashoffset:0;paint-order:normal;marker:none;visibility:visible;display:inline;overflow:visible;isolation:auto;mix-blend-mode:normal;enable-background:accumulate;clip-rule:nonzero;color-rendering:auto;image-rendering:auto;shape-rendering:auto;text-rendering:auto"/></g></svg>