<svg xmlns="http://www.w3.org/2000/svg" xmlns:svg="http://www.w3.org/2000/svg" id="svg2" width="16" height="16" version="1.1"><defs id="defs4"><filter id="filter3934" color-interpolation-filters="sRGB"><feGaussianBlur id="feGaussianBlur3936" stdDeviation=".24"/></filter><filter id="filter4481" color-interpolation-filters="sRGB"><feGaussianBlur id="feGaussianBlur4483" stdDeviation=".169"/></filter></defs><metadata id="metadata7"/><g id="layer1" transform="translate(0,-1036.3622)"><g id="g4485" transform="matrix(1.1709074,0,0,1.1709074,-2.2944412,-179.41641)"><path id="rect3856-5" d="m 9.2175641,1046.131 c -0.9853084,0.827 -1.9835078,1.6515 -2.9675641,2.4801 0.9595986,0.8585 1.9791933,1.6727 2.9675641,2.5011 l 0.3179536,-0.3816 -2.5224298,-2.1195 2.5224298,-2.0984 z m 2.5648719,0 -0.317953,0.3817 2.522429,2.0984 -2.522429,2.1195 0.317953,0.3816 c 0.988372,-0.8284 2.007966,-1.6426 2.967564,-2.5011 -0.984057,-0.8286 -1.982256,-1.6531 -2.967564,-2.4801 z" style="fill:#fff;fill-opacity:1;stroke:#fff;stroke-width:.93944222;stroke-linecap:round;stroke-linejoin:round;stroke-miterlimit:4;stroke-opacity:1;stroke-dasharray:none;filter:url(#filter4481)"/><path id="rect3856" d="m 9.2175641,1046.131 c -0.9853084,0.827 -1.9835078,1.6515 -2.9675641,2.4801 0.9595986,0.8585 1.9791933,1.6727 2.9675641,2.5011 l 0.3179536,-0.3816 -2.5224298,-2.1195 2.5224298,-2.0984 z m 2.5648719,0 -0.317953,0.3817 2.522429,2.0984 -2.522429,2.1195 0.317953,0.3816 c 0.988372,-0.8284 2.007966,-1.6426 2.967564,-2.5011 -0.984057,-0.8286 -1.982256,-1.6531 -2.967564,-2.4801 z" style="fill:#000;fill-opacity:1;stroke:#000;stroke-width:.42701918;stroke-linecap:round;stroke-linejoin:round;stroke-miterlimit:4;stroke-opacity:1;stroke-dasharray:none"/></g></g></svg>