<svg xmlns="http://www.w3.org/2000/svg" xmlns:svg="http://www.w3.org/2000/svg" id="svg2" width="16" height="16" version="1.1"><defs id="defs4"><filter id="filter3811" color-interpolation-filters="sRGB"><feGaussianBlur id="feGaussianBlur3813" stdDeviation=".225"/></filter><filter id="filter3825" color-interpolation-filters="sRGB"><feGaussianBlur id="feGaussianBlur3827" stdDeviation=".225"/></filter></defs><metadata id="metadata7"/><g id="layer1" transform="translate(0,-1036.3622)"><path id="path2989-4" d="m 11.171876,1043.3747 a 4.4999841,4.4943525 0 0 0 -4.1718599,4.4943 4.4999841,4.4943525 0 0 0 8.9999679,0 4.4999841,4.4943525 0 0 0 -4.828108,-4.4943 z m 0.117187,1.4981 a 2.9999894,2.996235 0 0 1 1.687494,0.3745 l -4.1015476,4.0965 a 2.9999894,2.996235 0 0 1 -0.3749986,-1.4748 2.9999894,2.996235 0 0 1 2.7890522,-2.9962 z m 2.765616,1.4279 a 2.9999894,2.996235 0 0 1 0.44531,1.5683 2.9999894,2.996235 0 0 1 -4.5702958,2.5515 l 4.1249858,-4.1198 z" transform="matrix(0.83334364,0,0,0.8333885,1.8230279,174.67935)" style="fill:#fff;fill-opacity:1;stroke:#fff;stroke-width:.71987927;stroke-linecap:round;stroke-linejoin:round;stroke-miterlimit:4;stroke-opacity:1;stroke-dasharray:none;filter:url(#filter3825)"/><path id="path2989" d="m 11.133514,1044.2139 a 3.7503378,3.7462196 0 0 0 -3.4768754,3.7462 3.7503378,3.7462196 0 0 0 7.5006754,0 3.7503378,3.7462196 0 0 0 -4.0238,-3.7462 z m 0.09767,1.2487 a 2.5002251,2.4974798 0 0 1 1.406376,0.3122 l -3.4182756,3.4146 a 2.5002251,2.4974798 0 0 1 -0.3125281,-1.2293 2.5002251,2.4974798 0 0 1 2.3244277,-2.4975 z m 2.304896,1.1902 a 2.5002251,2.4974798 0 0 1 0.371126,1.3073 2.5002251,2.4974798 0 0 1 -3.808936,2.1268 l 3.43781,-3.4341 z" style="fill:red;fill-opacity:1;stroke:#a00000;stroke-width:0;stroke-linecap:round;stroke-linejoin:round;stroke-miterlimit:4;stroke-opacity:1;stroke-dasharray:none"/></g></svg>